<svg xmlns="http://www.w3.org/2000/svg" viewBox="0 0 676.25 569.26"><defs><style>.cls-1{fill:#e6e6e6;}.cls-12,.cls-2{fill:none;}.cls-3{fill:#3c403f;}.cls-4{fill:#f7931e;}.cls-5{fill:#d97184;}.cls-6{fill:#c7b299;}.cls-7{fill:#f2c1b6;}.cls-8{fill:#4d4d4d;}.cls-9{fill:#c9dff2;}.cls-10{fill:#f20544;}.cls-11{fill:#d9a79c;}.cls-12{stroke:#fff;stroke-miterlimit:10;stroke-width:1.8px;}.cls-13{fill:#ffd36a;}</style></defs><g id="Layer_2" data-name="Layer 2"><g id="car"><path class="cls-1" d="M.1,324.65c-1.18-14.21,8.63-21.43,20.4-39.53,27-41.46,11-58.15,35.15-86,17.9-20.66,29.05-14.25,45.36-37.2,13.09-18.43,7.35-24.6,20.41-50,8.74-17,25.51-49.63,54.42-57,8-2,9.33-.22,47.62-4.65,4.69-.55,10.68-1.27,18.14-2.33C255.1,46,266.46,44,270,43.31c19.87-4,27.72-13.87,46.48-23.25,17-8.52,36.31-10.71,74.84-15.11,43.88-5,48.54-6.3,54.42-3.49,11.76,5.61,19.7,16.09,39.69,24.41,11.15,4.65,16.58,4.68,18.14,4.65,9-.14,13-3.89,18.14-1.16,4.06,2.17,4.28,6,7.93,12.79,4.66,8.59,9.78,12.4,14.74,17.44,16.63,16.83,17.68,33.16,34,51.15,5.38,5.92,3.53,2.24,43.09,27.9,32.45,21.05,40.39,27.87,45.35,39.53,3.77,8.87,5.71,20.27,6.8,26.73,2.21,13,3.31,19.52,2.27,26.74-3.09,21.47-20.73,21.74-26.08,43-2.74,10.91-.32,20.84,4.54,40.69,5.73,23.44,10.85,24.85,10.2,34.87-.89,13.67-10.94,19-39.68,45.34-31.76,29.07-47.64,43.61-53.29,59.29-4.91,13.62-4.27,23.43-13.61,30.23-11.84,8.61-24.59,1.38-32.88,10.46-6.65,7.27-1.74,15.49-4.54,27.9-5.47,24.23-35.35,42.29-61.22,45.34-28.89,3.4-51.61-12-57.83-16.28-25.15-17.1-23.45-34.18-43.08-38.36C340.9,510.41,330,521.91,313,513c-8.47-4.47-9.36-9.25-17-10.47-9.12-1.45-16.5,4-30.62,14-19.63,13.88-29.45,20.82-31.75,22.09-5.6,3.1-17.37,8.31-78.23-2.32C98.88,526.35,93.2,519.09,90.8,515.3c-10.38-16.37-8.19-44.43,4.54-59.29,5.85-6.82,10.09-6.38,12.47-12.79,5.32-14.3-8.9-35.08-23.81-46.5-8.31-6.36-9.14-3.92-27.21-14C44.42,375.91,33,369.55,21.64,358.36,11.47,348.3,1.21,338.16.1,324.65Z"/><path class="cls-2" d="M227.47,396.51c-.3.1-.59.2-.87.28"/><path class="cls-2" d="M162.1,271.11l-.36.61"/><path class="cls-3" d="M268.37,376.43A13.84,13.84,0,0,1,263,371.1a9.86,9.86,0,0,1-.46-.92,43.87,43.87,0,0,0-61.14,3.2c-.62.66-1.2,1.34-1.76,2A42.67,42.67,0,0,0,190,402.47a43.6,43.6,0,0,0,87.19,0A42.64,42.64,0,0,0,268.37,376.43Zm-34.75,40.66a14.89,14.89,0,1,1,14.88-14.88A14.89,14.89,0,0,1,233.62,417.09Z"/><path class="cls-4" d="M161.74,271.72a48.1,48.1,0,0,1-9.1,10.91,49.48,49.48,0,0,1-17.52,10.06l-.32.1q3.24-7.21,6.46-14.44a9.12,9.12,0,0,1,7.4-5.35Z"/><path class="cls-5" d="M596.06,272.9h-4.63a7,7,0,0,1-7-7.07V251.67a7,7,0,0,1,7-7.08H596a9.15,9.15,0,0,0-1-3,9.27,9.27,0,0,0-1.9-2.47L509,161.65a9,9,0,0,0-6.12-2.41H291.59a40.84,40.84,0,0,1-6.7,8.89H393.43a9.12,9.12,0,0,1,9.08,9.16V339.06a9.1,9.1,0,0,1-9.22,9.14L235,345.89a9.12,9.12,0,0,1-9-9.16V263.89a9.25,9.25,0,0,1,1.15-4.45L273,176.49a40.73,40.73,0,0,1-17.21,3.78c-1,0-1.93,0-2.88-.1q-25,41.9-50.07,83.78a9.05,9.05,0,0,1-6.89,4.39l-34.19,3.38a48.18,48.18,0,0,1-9.11,10.91,49.48,49.48,0,0,1-17.51,10.05l-.32.1Q120,325.9,105.17,359L163,357.91a9.11,9.11,0,0,1,9.25,9.33L172,377.6h21.75a9,9,0,0,0,5.89-2.19,9.29,9.29,0,0,0,1.76-2l.2-.33,6.74-11.65a9.09,9.09,0,0,1,7.86-4.56h35.53c3.95,1.22,6.91,3.18,8.57,6.06,1.54,2.68,1.1,4.69,2.24,7.28a42.7,42.7,0,0,1,5.84,6.25,7,7,0,0,0,3.07.93l156.47,2.93a9.07,9.07,0,0,0,8.4-5.27c1.76-3.85,4.18-8.18,5.93-12a9.1,9.1,0,0,1,8.27-5.29h39.25a9.07,9.07,0,0,1,8.63,6.27c1.54,4.72,3.14,10,4.67,14.72a9.09,9.09,0,0,0,8.63,6.29H587c5,0,10.5-4.25,10.5-9.32ZM553,339.65a9.12,9.12,0,0,1-9.08,9.16H427.38a9.12,9.12,0,0,1-9.09-9.13q-.19-81.45-.42-162.88a9.13,9.13,0,0,1,9-9.18q36.57-.21,73.17-.39a9.07,9.07,0,0,1,8.1,4.91q21.9,42.15,43.78,84.32a9.14,9.14,0,0,1,1,4.25Z"/><path class="cls-3" d="M268.37,376.43A13.84,13.84,0,0,1,263,371.1a9.86,9.86,0,0,1-.46-.92A42.7,42.7,0,0,1,268.37,376.43Z"/><path class="cls-6" d="M172.21,367.25c-.07,3.45-.14,6.89-.21,10.35H110.93a9.16,9.16,0,0,1-8.28-12.92l2.52-5.64L163,357.91A9.12,9.12,0,0,1,172.21,367.25Z"/><path class="cls-7" d="M402.52,177.3V339.06a9.12,9.12,0,0,1-9.22,9.15L235,345.89a9.13,9.13,0,0,1-9-9.15V263.9a9.28,9.28,0,0,1,1.15-4.46L273,176.5a41.46,41.46,0,0,0,11.91-8.36H393.43A9.12,9.12,0,0,1,402.52,177.3Z"/><path class="cls-8" d="M388.9,188.07,388,249a9.12,9.12,0,0,1-9.11,9l-121.24-.3a9.16,9.16,0,0,1-7.92-13.61l33.81-61.24a9.06,9.06,0,0,1,8-4.7l88.3.64A9.11,9.11,0,0,1,388.9,188.07Z"/><path class="cls-7" d="M428.32,248.74q.44-30.81.88-61.61a9.11,9.11,0,0,1,9.08-9h-.73a9.11,9.11,0,0,0-9.08,9q-.44,30.81-.87,61.61a9.11,9.11,0,0,0,9.08,9.29h.73A9.13,9.13,0,0,1,428.32,248.74Z"/><path class="cls-7" d="M552,256.47q-21.88-42.17-43.79-84.33a9.07,9.07,0,0,0-8.1-4.91l-73.17.39a9.12,9.12,0,0,0-9,9.18q.21,81.45.41,162.88a9.12,9.12,0,0,0,9.09,9.13H543.92a9.12,9.12,0,0,0,9.09-9.15v-79A9.23,9.23,0,0,0,552,256.47ZM436.68,258a9.11,9.11,0,0,1-9.08-9.29q.42-30.81.87-61.61a9.11,9.11,0,0,1,9.08-9H495.8a9.09,9.09,0,0,1,8.12,5.06c10.22,20.52,21,41,31.39,61.57A9.15,9.15,0,0,1,527.2,258Z"/><path class="cls-8" d="M527.2,258H436.68a9.11,9.11,0,0,1-9.08-9.29q.42-30.81.87-61.61a9.11,9.11,0,0,1,9.08-9H495.8a9.09,9.09,0,0,1,8.12,5.06c10.22,20.52,21,41,31.39,61.57A9.15,9.15,0,0,1,527.2,258Z"/><path class="cls-9" d="M382.12,192.08l-.78,52.84a8.09,8.09,0,0,1-8.23,7.83l-109.51-.27a8,8,0,0,1-7.15-11.81L287,187.55a8.27,8.27,0,0,1,7.23-4.08L374,184A8.07,8.07,0,0,1,382.12,192.08Z"/><path class="cls-10" d="M596.06,272.9h-4.63a7,7,0,0,1-7-7.07V251.67a7,7,0,0,1,7-7.07H596Z"/><path class="cls-9" d="M520.64,252.3h-77.4a7.79,7.79,0,0,1-7.76-7.94q.36-26.34.74-52.68A7.79,7.79,0,0,1,444,184h49.8a7.77,7.77,0,0,1,6.95,4.32c8.74,17.55,18,35.09,26.83,52.64A7.82,7.82,0,0,1,520.64,252.3Z"/><path class="cls-11" d="M377.65,280.05V288a2.17,2.17,0,0,1-2.18,2.16H334.79a2.17,2.17,0,0,1-2.18-2.16v-7.6a2.18,2.18,0,0,1,2.16-2.16l40.68-.34a2.25,2.25,0,0,1,1.18.33A2.17,2.17,0,0,1,377.65,280.05Z"/><path class="cls-5" d="M377.65,280.05V288a2.17,2.17,0,0,1-2.18,2.16h-13a2.17,2.17,0,0,1-1.51-2.06V280.5a2.18,2.18,0,0,1,2.16-2.17l13.54-.11A2.17,2.17,0,0,1,377.65,280.05Z"/><path class="cls-11" d="M530.75,278.24v7.94a2.17,2.17,0,0,1-2.18,2.16H487.89a2.17,2.17,0,0,1-2.18-2.16v-7.6a2.18,2.18,0,0,1,2.16-2.16l40.68-.33a2.15,2.15,0,0,1,2.2,2.15Z"/><path class="cls-5" d="M530.75,278.24v7.94a2.17,2.17,0,0,1-2.18,2.16h-13a2.16,2.16,0,0,1-1.52-2.06v-7.59a2.17,2.17,0,0,1,2.16-2.16l13.54-.12A2.15,2.15,0,0,1,530.75,278.24Z"/><line class="cls-2" x1="355.29" y1="199.13" x2="336.17" y2="212.98"/><line class="cls-12" x1="488.52" y1="197.92" x2="470" y2="215.39"/><line class="cls-12" x1="494.5" y1="208.76" x2="483.15" y2="221.41"/><line class="cls-12" x1="347.7" y1="206.07" x2="329.18" y2="223.53"/><line class="cls-12" x1="352.31" y1="222.01" x2="341.47" y2="232.21"/><line class="cls-12" x1="320.34" y1="206.66" x2="312.22" y2="214.84"/><path class="cls-3" d="M468.7,359.84A43.18,43.18,0,1,0,512.3,403,43.39,43.39,0,0,0,468.7,359.84Zm0,57.8a14.88,14.88,0,1,1,14.88-14.88A14.88,14.88,0,0,1,468.73,417.64Z"/><path class="cls-7" d="M284.9,168.14A41.46,41.46,0,0,1,273,176.5l2-3.65a9,9,0,0,1,7.92-4.71Z"/><path class="cls-5" d="M291.6,159.24a41.14,41.14,0,0,1-6.7,8.9h-2a9,9,0,0,0-7.92,4.71l-2,3.65a40.76,40.76,0,0,1-17.21,3.77c-1,0-1.94,0-2.88-.09l9.86-16.5a9.07,9.07,0,0,1,7.78-4.44Z"/><path class="cls-13" d="M296.78,139.27a40.83,40.83,0,0,1-5.18,20H270.54a9.07,9.07,0,0,0-7.78,4.44l-9.86,16.5a41,41,0,1,1,43.88-40.91Z"/></g></g></svg>