<svg xmlns="http://www.w3.org/2000/svg" viewBox="0 0 1346.9 686.21"><defs><style>.cls-1{fill:#f2c1b6;}.cls-1,.cls-12,.cls-7{opacity:0.76;}.cls-2{fill:none;}.cls-3,.cls-8{fill:#d97184;}.cls-3{opacity:0.38;}.cls-4{fill:#f2bc8d;opacity:0.71;}.cls-5{fill:#f2b3dc;}.cls-10,.cls-5{opacity:0.78;}.cls-6{fill:#88c9f2;opacity:0.85;}.cls-7{fill:#f2a516;}.cls-8{opacity:0.44;}.cls-9{fill:#d94ea8;stroke:#d94ea8;stroke-linecap:round;stroke-miterlimit:10;stroke-width:5px;}.cls-10,.cls-11{fill:#c9dff2;}.cls-11{opacity:0.53;}.cls-12{fill:#f26be9;}.cls-13{fill:#d9a79c;}</style></defs><g id="Layer_2" data-name="Layer 2"><g id="plane"><path class="cls-1" d="M590.69,650.82c-113.3,24.24-240.28,39.84-382.89,34.25-37.89-1.48-71.19-4.24-98.22-7.09a28.83,28.83,0,0,0,.49-5.27c.13-11-5.81-22.65-6.88-24.82-4.7-9.58-10.76-17.22-16.45-21.41l16.87-6.85c-31.83-68.24-69.6-145-102-214a17.12,17.12,0,0,1,7.15-22.26,190.59,190.59,0,0,1,38-15.18c22.19-5.9,36.81,11.53,95.58,66.1,86.89,80.68,85.42,111.61,125,119,4.68.87,42.79-9.75,119-31,11.73-3.27,33.66-9.44,61.94-19.42Z"/><path class="cls-2" d="M501.4,483.31l-2.28.9"/><path class="cls-3" d="M113.07,672.11a26,26,0,0,1-.49,5c-.56,2.67-1.76,5.57-4.37,6.65-4.43,1.83-11.62-2.11-18.22-9.07a61.64,61.64,0,0,1-9.9-14c-8.33-16.07-9.23-31.82-2-35.16,3.14-1.46,7.29-.34,11.67,2.72,5.69,4,11.75,11.22,16.45,20.3C107.26,650.65,113.2,661.66,113.07,672.11Z"/><line class="cls-2" x1="493.4" y1="474.31" x2="492.49" y2="472.47"/><path class="cls-4" d="M800.74,594.46q-13.34,4.2-27,8.39a2.9,2.9,0,0,1-3.62-1.87c-5.58-17.28-14.21-31.21-24.62-39.67a3,3,0,0,0-2.06-.64,236.31,236.31,0,0,0-44.35,7.64,229,229,0,0,0-65,29A220.65,220.65,0,0,0,611.92,614h0a121.44,121.44,0,0,0,6.92,27.34v0a2.89,2.89,0,0,1-2,3.85q-10.77,2.46-21.7,4.83a2.93,2.93,0,0,1-3.16-1.42L499.12,484.21l-6.6-11.67c0-.05,0-.09-.07-.14l-22.25-45a25.19,25.19,0,0,1,14.71-35.1l88.86-29.22A25.19,25.19,0,0,1,600.2,370l59.51,64.81L802,589.72A2.91,2.91,0,0,1,800.74,594.46Z"/><line class="cls-2" x1="492.49" y1="472.47" x2="492.4" y2="472.31"/><path class="cls-1" d="M1104.4,479.31a1969.43,1969.43,0,0,1-223,89c-24.52,8.09-49.94,16.44-76.3,24.78L659.71,434.77C675.93,428,692.3,421.38,708.45,415l3.94-1.54h0c55.46-21.74,108-40.38,143-52.16,106-35.69,181.69-53.87,237.47-63h0c48-7.86,81.28-9.06,106.52-9,26.42.1,61.17.23,90.3,3.86a214.36,214.36,0,0,1,23.78,4.17c17.63,4.26,30.3,10.83,32.92,21C1357.22,360.22,1190,439,1104.4,479.31Z"/><path class="cls-2" d="M659.71,434.77c-.44.17-.87.36-1.31.54"/><path class="cls-5" d="M776.65,634.94a223.2,223.2,0,0,1-28.44,15.78,232.33,232.33,0,0,1-70.75,19.49,234.89,234.89,0,0,1-39.59,1.13c-6.38-4.75-12.83-14.75-17.79-26.83h0c-.42-1-.83-2.07-1.23-3.13A121.44,121.44,0,0,1,611.92,614h0a220.65,220.65,0,0,1,22.19-16.72,229,229,0,0,1,65-29,235.53,235.53,0,0,1,45.51-7.72C756,569.4,765.3,584.66,771,603.7c.15.5.3,1,.44,1.51A148.12,148.12,0,0,1,776.65,634.94Z"/><path class="cls-6" d="M1098.87,298.27c-55.78,9.17-131.45,27.35-237.47,63-35,11.78-87.55,30.42-143,52.16,4.58-19.86,3.66-35-.69-41.4-11.38-16.74-39.81-9.25-43-24.72-3.12-15.16,11.31-31.42,21-38.7,13.35-10,23.48-7.31,28-16.12,3.45-6.74-1-17.52-6.91-28.06-.87-1.55-1.78-3.1-2.71-4.63l-.17-.28c.29-.37.58-.73.88-1.09,13.62-16.55,31.68-24.84,44.91-20.47,9.08,3,13.83,11.7,18,10,5.72-2.32-5.55-21.38,0-40,6.82-22.87,36.59-38.51,63-39,17.2-.32,25.89,15.06,38,10,7.14-3,6.7-8.46,14-16,9.26-9.57,24-15.27,37.68-16l1-.05c9.87-.39,19.13,1.84,25.33,7.06,10.23,8.63,6,20.35,15,24,11.73,4.79,21-14.52,41-14,14.86.39,29.45,11.57,35,24,4.31,9.65.13,13.24,2.88,23.5q.11.42.24.87c.25.83.54,1.71.88,2.63,2,5.27,3.81,7.27,22,29,3.94,4.71,6.93,8.29,9.2,11.12,5.72,7.14,6.8,9.47,6.8,12.88,0,11.22-11.76,17.37-9,23,2.62,5.34,13.75.93,18,7C1098.76,298.09,1098.82,298.18,1098.87,298.27Z"/><path class="cls-2" d="M707.07,260.63v0l.83-1.05"/><path class="cls-6" d="M1294.7,263c-2.58,14.55-35.83,18.33-35,24,.57,3.9,16.21,1.59,30,6.17-29.13-3.63-63.88-3.76-90.3-3.86-25.24-.1-58.52,1.1-106.52,9h0c0-.09-.11-.18-.17-.27-4.25-6.07-15.38-1.66-18-7-2.76-5.63,9-11.78,9-23,0-3.41-1.08-5.74-6.8-12.88-2.27-2.83-5.26-6.41-9.2-11.12-18.19-21.73-20-23.73-22-29-.34-.92-.63-1.8-.88-2.63q-.13-.45-.24-.87A45.65,45.65,0,0,1,1066.7,198c13.58-3.51,29.89-.78,40,9,12.19,11.8,8.81,27.55,16,29a4.47,4.47,0,0,0,2.44-.18h0a7.48,7.48,0,0,0,2.55-1.7h0c5-4.7,10-16.64,23-24.1a45.34,45.34,0,0,1,5.79-2.78c17.6-7,40.37-4.13,51.21,7.78,6.58,7.23,2.9,11.35,9,17,13.84,12.83,35.71-5.68,59,6C1286,243.17,1296.28,254.1,1294.7,263Z"/><path class="cls-2" d="M1044.58,211.5c-1.31,1.45-2.27,2.68-2.88,3.5"/><path class="cls-2" d="M707.91,259.56l-.21-.35"/><path class="cls-7" d="M1184.7,130.52a129.61,129.61,0,0,1-28.21,80.92,46.67,46.67,0,0,0-5.79,2.77c-13,7.44-18,19.33-23,24h0c-.84.57-1.7,1.13-2.55,1.69h0a4.47,4.47,0,0,1-2.44.18c-7.19-1.45-3.81-17.14-16-28.9-10.11-9.74-26.42-12.46-40-9a45.63,45.63,0,0,0-22.12,13.45c-2.75-10.22,1.43-13.8-2.88-23.42-5.55-12.38-20.14-23.52-35-23.91-20-.52-29.27,18.72-41,14-9-3.64-4.77-15.31-15-23.91-6.2-5.2-15.46-7.42-25.33-7l-1,.05a129.78,129.78,0,0,1-1.68-20.91C922.7,58.44,981.35,0,1053.7,0S1184.7,58.44,1184.7,130.52Z"/><path class="cls-8" d="M985.37,480.53a1242.88,1242.88,0,0,1-140.83,56.21c-15.48,5.11-31.53,10.38-48.18,15.65l-91.81-100c10.24-4.28,20.58-8.46,30.78-12.47l2.49-1h0c35-13.73,68.2-25.5,90.3-32.94,67-22.54,114.74-34,150-39.81h0c30.31-5,51.33-5.72,67.27-5.66,16.68.07,38.62.15,57,2.44a137.11,137.11,0,0,1,15,2.63c11.13,2.69,19.13,6.84,20.79,13.25C1145,405.33,1039.45,455.06,985.37,480.53Z"/><line class="cls-9" x1="1238.32" y1="318.71" x2="1296.32" y2="296.71"/><path class="cls-8" d="M489.93,637c-79.49,15.33-168.62,25.22-268.76,21.7-26.5-.93-49.8-2.67-68.7-4.46a16.6,16.6,0,0,0,.34-3.31c.09-6.93-4.07-14.23-4.81-15.59-3.29-6-7.53-10.82-11.51-13.45l11.8-4.31c-23.61-45.47-51.9-96.93-75.4-142.26,4.63-5.81,24.72-13.09,35.68-15.71,15.52-3.7,25.74,7.25,66.85,41.53,60.78,50.7,59.75,70.13,87.44,74.77,3.27.55,29.93-6.12,83.24-19.47,9.88-2.48,30.1-7.59,56-16.34,4.64-1.57,17.2-5.86,22.19-7.6Z"/><path class="cls-10" d="M1258.69,267.51c-2,11.43-28.14,14.4-27.49,18.85.45,3.06,12.73,1.25,23.56,4.84-22.88-2.85-50.17-2.95-70.92-3-19.82-.08-46,.87-83.66,7h0a2.39,2.39,0,0,0-.13-.21c-3.34-4.77-12.08-1.31-14.14-5.5-2.17-4.42,7.07-9.25,7.07-18.06,0-2.68-.85-4.51-5.34-10.12-1.78-2.22-4.13-5-7.23-8.73-14.28-17.07-15.74-18.64-17.27-22.78-.27-.72-.5-1.41-.7-2.07-.07-.23-.13-.46-.18-.68a35.87,35.87,0,0,1,17.37-10.6c10.66-2.76,23.47-.61,31.41,7.07,9.58,9.26,6.92,21.63,12.57,22.77a3.46,3.46,0,0,0,1.92-.14h0a5.76,5.76,0,0,0,2-1.33h0c3.9-3.69,7.83-13.07,18-18.93a35.92,35.92,0,0,1,4.55-2.18c13.82-5.51,31.71-3.24,40.22,6.11,5.17,5.68,2.28,8.91,7.07,13.35,10.87,10.08,28-4.46,46.34,4.71C1251.86,251.93,1259.93,260.52,1258.69,267.51Z"/><path class="cls-11" d="M1068.81,293.19c-46.5,7.64-109.57,22.79-197.94,52.54-29.17,9.82-73,25.36-119.2,43.48,3.81-16.55,3.05-29.18-.58-34.51-9.48-13.95-33.18-7.71-35.84-20.6-2.6-12.64,9.43-26.19,17.5-32.26,11.13-8.36,19.58-6.09,23.34-13.44,2.88-5.61-.79-14.6-5.76-23.39-.72-1.29-1.48-2.58-2.26-3.85,0-.08-.09-.15-.14-.24.24-.31.49-.61.74-.91,11.35-13.79,26.4-20.7,37.43-17.06,7.57,2.49,11.53,9.75,15,8.34,4.77-1.94-4.62-17.82,0-33.34,5.69-19.07,30.5-32.1,52.52-32.51,14.33-.27,21.58,12.55,31.67,8.33,6-2.49,5.58-7.05,11.67-13.33,7.72-8,20-12.73,31.41-13.35l.82,0c8.23-.33,15.95,1.53,21.11,5.88,8.53,7.2,5.05,17,12.51,20,9.77,4,17.52-12.1,34.17-11.67,12.39.33,24.55,9.64,29.18,20,3.59,8,.1,11,2.4,19.59a7.27,7.27,0,0,0,.2.73c.2.69.45,1.42.73,2.19,1.63,4.39,3.18,6.06,18.34,24.17,3.28,3.93,5.77,6.91,7.67,9.27,4.76,5.95,5.66,7.89,5.66,10.74,0,9.35-9.8,14.48-7.5,19.17,2.19,4.45,11.46.77,15,5.83C1068.72,293,1068.77,293.11,1068.81,293.19Z"/><ellipse class="cls-12" cx="756.88" cy="599.87" rx="20.6" ry="41.14" transform="matrix(0.94, -0.35, 0.35, 0.94, -163.45, 307.12)"/><path class="cls-13" d="M593,650.54l-1.32.28L449.34,502.89q8.66-3,18.06-6.58c6.63-2.5,24.58-9.33,31.72-12.1Z"/></g></g></svg>